<?xml version="1.0" encoding="UTF-8"?>
<svg id="Layer_2" data-name="Layer 2" xmlns="http://www.w3.org/2000/svg" viewBox="0 0 182.44 59.35">
  <defs>
    <style>
      .cls-1 {
        fill: #fff;
      }

      .cls-2 {
        stroke: #fff;
        stroke-miterlimit: 10;
      }

      .cls-2, .cls-3 {
        fill: #e60f8a;
      }

      .cls-4 {
        fill: #f0b6ca;
      }

      .cls-5 {
        fill: #231f20;
      }
    </style>
  </defs>
  <g id="Layer_1-2" data-name="Layer 1">
    <g>
      <g>
        <path d="m0,39.82v-1.47l14-17.66.23.81H.2v-1.84h15.99v1.47L2.22,38.79l-.26-.81h14.58v1.84H0Z"/>
        <path d="m26.31,39.97c-1.58,0-2.96-.33-4.15-.99-1.19-.66-2.12-1.58-2.79-2.74-.67-1.16-1.01-2.49-1.01-3.99s.32-2.82.96-3.98,1.53-2.06,2.65-2.72c1.12-.66,2.39-.99,3.79-.99s2.68.32,3.79.96c1.1.64,1.97,1.55,2.61,2.71.63,1.16.95,2.5.95,4.02,0,.1,0,.2-.01.3s-.01.22-.01.33h-13.17v-1.53h12.07l-.81.61c0-1.09-.24-2.07-.71-2.92s-1.11-1.52-1.92-2c-.81-.48-1.74-.72-2.79-.72s-1.97.24-2.79.72c-.83.48-1.47,1.15-1.93,2.02s-.69,1.85-.69,2.97v.32c0,1.15.25,2.17.76,3.04.51.88,1.22,1.56,2.13,2.05.91.49,1.95.74,3.13.74.92,0,1.78-.16,2.58-.49.8-.33,1.48-.83,2.06-1.5l1.15,1.33c-.67.81-1.51,1.42-2.52,1.84-1.01.42-2.12.63-3.33.63Z"/>
        <path d="m45.01,24.55c1.23,0,2.31.24,3.24.71s1.66,1.19,2.19,2.15.79,2.17.79,3.63v8.79h-2.05v-8.59c0-1.59-.4-2.8-1.2-3.62-.8-.82-1.92-1.22-3.36-1.22-1.08,0-2.01.22-2.81.65-.8.43-1.41,1.06-1.84,1.87s-.65,1.8-.65,2.95v7.95h-2.05v-15.13h1.96v4.15l-.32-.78c.48-1.09,1.25-1.95,2.31-2.58,1.06-.62,2.31-.94,3.77-.94Z"/>
        <path class="cls-3" d="m57.8,21.35c-.42,0-.78-.14-1.07-.43s-.43-.63-.43-1.04.14-.74.43-1.02c.29-.28.64-.42,1.07-.42s.78.13,1.07.4c.29.27.43.6.43,1.01s-.14.78-.42,1.07c-.28.29-.64.43-1.08.43Zm-1.04,18.47v-15.13h2.05v15.13h-2.05Z"/>
        <path d="m68.78,39.97c-1.13,0-2.12-.19-2.95-.56-.84-.37-1.47-.89-1.92-1.56-.44-.66-.66-1.43-.66-2.29,0-.79.19-1.5.56-2.15.38-.64.99-1.16,1.84-1.56.86-.39,2-.59,3.44-.59h5.22v1.53h-5.16c-1.46,0-2.47.26-3.04.78s-.85,1.16-.85,1.93c0,.86.34,1.56,1.01,2.08.67.52,1.61.78,2.82.78s2.15-.26,2.98-.79c.84-.53,1.45-1.29,1.83-2.29l.46,1.41c-.38,1-1.05,1.8-2,2.39-.95.6-2.15.89-3.59.89Zm5.21-.14v-3.34l-.09-.55v-5.59c0-1.29-.36-2.28-1.08-2.97s-1.79-1.04-3.21-1.04c-.98,0-1.91.16-2.79.49-.88.33-1.63.76-2.25,1.3l-.92-1.53c.77-.65,1.69-1.16,2.77-1.51s2.21-.53,3.4-.53c1.96,0,3.47.49,4.54,1.46,1.07.97,1.6,2.44,1.6,4.42v9.39h-1.96Z"/>
      </g>
      <g>
        <path d="m108.76,40c-1.54,0-2.95-.25-4.25-.76-1.3-.51-2.42-1.22-3.37-2.15s-1.69-2.01-2.22-3.26c-.53-1.25-.79-2.61-.79-4.09s.26-2.84.79-4.09c.53-1.25,1.27-2.33,2.23-3.26s2.09-1.64,3.39-2.15c1.3-.51,2.71-.76,4.25-.76s2.94.24,4.22.72c1.28.48,2.37,1.21,3.27,2.19l-1.33,1.35c-.85-.85-1.78-1.45-2.79-1.82-1.02-.37-2.11-.55-3.29-.55-1.25,0-2.4.21-3.44.62-1.05.41-1.96,1-2.74,1.76-.78.76-1.38,1.64-1.82,2.65s-.65,2.12-.65,3.33.22,2.3.65,3.31c.43,1.02,1.04,1.91,1.82,2.67.78.76,1.69,1.34,2.74,1.76s2.19.62,3.41.62c1.15,0,2.24-.17,3.27-.52,1.03-.35,1.97-.93,2.84-1.76l1.21,1.61c-.96.85-2.08,1.48-3.37,1.92-1.29.43-2.63.65-4.03.65Zm5.36-2.82v-7.43h2.05v7.69l-2.05-.26Z"/>
        <path d="m121.76,39.82v-15.13h1.96v4.12l-.2-.72c.42-1.15,1.13-2.03,2.13-2.64,1-.6,2.24-.91,3.72-.91v1.99c-.08,0-.15,0-.23-.01-.08,0-.15-.01-.23-.01-1.59,0-2.84.49-3.75,1.46-.9.97-1.35,2.35-1.35,4.13v7.72h-2.05Z"/>
        <path d="m136.22,39.97c-1.13,0-2.12-.19-2.95-.56-.83-.37-1.47-.89-1.92-1.56-.44-.66-.66-1.43-.66-2.29,0-.79.19-1.5.56-2.15.38-.64.99-1.16,1.84-1.56.85-.39,2-.59,3.44-.59h5.21v1.53h-5.16c-1.46,0-2.47.26-3.04.78s-.85,1.16-.85,1.93c0,.86.33,1.56,1.01,2.08.67.52,1.61.78,2.82.78s2.15-.26,2.98-.79c.83-.53,1.45-1.29,1.83-2.29l.46,1.41c-.38,1-1.05,1.8-2,2.39-.95.6-2.15.89-3.59.89Zm5.22-.14v-3.34l-.09-.55v-5.59c0-1.29-.36-2.28-1.08-2.97-.72-.69-1.79-1.04-3.21-1.04-.98,0-1.91.16-2.79.49-.88.33-1.63.76-2.25,1.3l-.92-1.53c.77-.65,1.69-1.16,2.77-1.51,1.08-.36,2.21-.53,3.4-.53,1.96,0,3.47.49,4.54,1.46s1.6,2.44,1.6,4.42v9.39h-1.96Z"/>
        <path d="m148.96,45.41v-20.72h1.96v4.55l-.2,3.03.29,3.05v10.08h-2.05Zm7.81-5.45c-1.31,0-2.49-.3-3.54-.91-1.06-.61-1.9-1.48-2.52-2.62-.62-1.14-.94-2.54-.94-4.19s.31-3.05.92-4.19c.61-1.14,1.45-2.01,2.51-2.61,1.06-.59,2.25-.89,3.57-.89,1.44,0,2.73.32,3.88.96,1.14.64,2.04,1.55,2.69,2.71.65,1.16.98,2.5.98,4.02s-.33,2.88-.98,4.03c-.65,1.15-1.55,2.06-2.69,2.71-1.14.65-2.44.98-3.88.98Zm-.14-1.82c1.08,0,2.04-.25,2.88-.74.84-.49,1.52-1.18,2.02-2.07.5-.89.75-1.93.75-3.1s-.25-2.2-.75-3.08c-.5-.88-1.17-1.58-2.02-2.08-.85-.5-1.81-.75-2.88-.75s-2.04.25-2.9.75c-.86.5-1.53,1.19-2.02,2.08-.49.88-.73,1.91-.73,3.08s.25,2.2.73,3.1c.49.89,1.16,1.58,2.02,2.07.85.49,1.82.74,2.9.74Z"/>
        <path d="m176.22,24.55c1.23,0,2.31.24,3.24.71s1.66,1.19,2.19,2.15.79,2.17.79,3.63v8.79h-2.04v-8.59c0-1.59-.4-2.8-1.2-3.62-.8-.82-1.92-1.22-3.36-1.22-1.08,0-2.01.22-2.81.65-.8.43-1.41,1.06-1.84,1.87-.43.82-.65,1.8-.65,2.95v7.95h-2.04v-21.38h2.04v10.4l-.4-.78c.48-1.09,1.25-1.95,2.3-2.58s2.31-.94,3.78-.94Z"/>
      </g>
      <g>
        <path class="cls-3" d="m100.61,16.59c.33.22.44.57.42.98.18-.85.27-1.73.27-2.63,0-.2,0-.39-.01-.59-.21.73-.45,1.46-.68,2.24Z"/>
        <path class="cls-3" d="m76.54,15.24c.49-.13,1.03-.08,1.69-.12-.23.13-.43.24-.61.35.13.16.2.25.3.37-1.5-.41-2.55-.18-3.07.65-.36.57-.1,1.98.45,2.64.39-.48.79-.96,1.19-1.45-.02.25-.06.53-.22.69-.65.66-.67,1.32,0,1.97.66.64,1.51.86,2.43.99-.03-.11-.04-.18-.07-.24-.64-1.26-.22-2.93,1.02-3.53.68-.33,1.11-.96,1.42-1.66.5-1.09-.06-2.23-1.26-2.37-.73-.08-1.48.02-2.09.03.1-.06.32-.2.58-.36-.15-.12-.25-.2-.41-.34,1.3.43,2.91-.15,3.61,1.52.7-.81.78-1.61.2-2.47.07-.02.14-.03.2-.05.18.31.35.63.52.93.37-.66.28-1.02-.45-1.79-.89-.95-.95-1.5-.3-2.64.26-.45.46-.95.68-1.42,0-.02.04-.02.07-.03.02.14.03.28.07.55.63-.37,1.26-.63,1.76-1.05.53-.44.78-1.06.53-1.79.15.31.29.61.45.94-.24.34-.52.74-.85,1.23,1.04-.08,1.8.38,2.58.8.94.51,2.08-.1,2.22-1.16.02-.18.05-.37.08-.69.28.82.14,1.43-.37,1.92-.55.53-1.22.7-1.95.41-.42-.17-.81-.42-1.23-.62-1.44-.68-3.32.13-3.8,1.63-.16.5-.07.92.28,1.32.41.47.77.98,1.17,1.5.28-.12.3-.39.13-.73-.24-.47-.48-.94-.67-1.43-.13-.33-.11-.68.13-.85.04.36.04.75.13,1.12.07.28.29.53.38.81.24.71.72,1,1.45.89.03,0,.06.03.21.13-.23.05-.37.13-.49.11-.97-.18-1.53.25-1.61,1.15.8.2,1.58.4,2.49.62-.43.04-.74.06-1.18.1-.83-.67-1.56-.52-2.16.63-.1.19-.18.38-.24.58-.28.82-.54,1.64-.83,2.52.44-.3.89-.61,1.34-.92-.15.67-.7.94-1.3,1.13-.74.24-1.31.71-1.74,1.32-.18.26-.27.75-.15,1.03.55,1.34,1.71,2.11,2.88,2.85-.37-.91-.65-1.81-.47-2.79.19-1.04.17-1.06-.7-1.56.23,0,.47,0,.67.09.21.11.36.31.55.48.34-.3.65-.59.97-.87.86-.74,1.47-1.55.92-2.77.5.5.39,1.11.33,1.7,1.1-.16,1.39-.1,1.88.44-.62-.15-1.21-.37-1.76.05-.46.35-.93.68-1.39,1.02.54.12.99.22,1.44.32-.01.05-.02.09-.03.14-.28-.04-.55-.1-.83-.11-1.01-.01-1.63.63-1.54,1.64.1,1.02.52,1.92,1.13,2.74,1.33-1.38,1.78-1.69,3.03-2.17.67-.25.82-.57.6-1.26-.06-.19-.16-.37-.27-.6.78.33.74.94.61,1.62.66-.11,1.04-.54,1.41-.95.87-.95.9-2.17-.02-3.08-.45-.44-1.06-.72-1.6-1.08-.13-.08-.25-.16-.38-.25.02-.04.05-.07.07-.11.71.33,1.42.65,2.09.96.16-.5.23-1.08.51-1.53.33-.53.71-1,.47-1.7.06,0,.11.01.17.02.05.29.09.58.14.87.19-.02.36-.04.64-.07-1.55.97-1.85,1.86-1.25,3.49.29.79.18,1.53-.23,2.24-.2.36-.47.67-.77,1.09,1.52-.35,2.97-.65,4.27-1.41.81-.47,1.33-1.21,1.61-2.09.09-.29.11-.63.05-.93-.11-.51-.54-.8-.95-.74-.54.08-.96.55-.97,1.05,0,.28-.05.57-.08.85-.05,0-.1,0-.14,0v-.86c-.23.17-.41.29-.58.41.5-.92,1-1.85,2.29-1.72.01-.06.02-.12.03-.18-.47-.29-.95-.58-1.39-.86.12-.02.31-.04.49-.06,0-.44,0-.86,0-1.28,0-.1-.01-.21-.04-.31-.15-.58-.54-.95-1.15-1-.33-.03-.67.03-1.11.06.25-.21.42-.36.6-.52-.51-.66-1.45-1.05-2.15-.75-1.37.57-1.56,1.8-1.57,3.14q-.26-.54.1-2.31c-.76.18-1.13-.25-1.43-.86-.21-.42-.52-.78-.79-1.18.04-.03.12-.11.22-.2.35.55.68,1.08,1.02,1.62.23.36.56.52.95.33.44-.21.84-.49,1.27-.75-.38-.5-1.17-.62-1.01-1.36.36.35.72.7,1.13,1.1.04-.5.07-.85.09-1.19.11,1.19.32,1.44,1.37,1.43v-1.37c.07,1.02.65,2.05,1.45,2.45.45.23.89.5,1.35.77.16-.24.45-.54.59-.9.13-.33.1-.72.14-1.05.09.15.22.39.37.65.15-.02.32-.03.52-.05-.26.24-.52.42-.71.66-1.03,1.21-1.02,2.36-.11,3.65.32.45.5,1.05.58,1.6.07.5-.09,1.04-.15,1.6,2.29-1.23,3.46-3.17,3.8-5.67v1.05c.41-.27.75-.5,1.1-.74.04.03.08.06.12.09-1.18.76-1.76,1.87-2.03,3.19h.78c-.77.06-1.25.58-1.77,1.06-.48.44-1.01.82-1.55,1.19-.4.28-.9.44-1.26.76-1.26,1.15-2.7,1.9-4.35,2.29-.18.04-.38.24-.52.2-.77-.22-1.51-.11-2.24.13-.33.11-.62.33-.93.51.02.05.04.1.05.15h1.16c-.15.19-.27.36-.41.53-.72-.45-2.02-.05-2.35.79-.05.11-.05.3.01.39.26.36.56.69.89,1.1.33-.85.96-1.12,1.69-1.23.45-.07.91-.12,1.36-.2.17-.03.42-.07.47-.17.24-.53.79-.53,1.2-.72.55-.26,1.15-.46,1.75-.56.58-.1.99-.32,1.25-.84.45-.89,1.19-1.34,2.16-1.52.85-.16,1.72-.35,2.24-.93.27.12.44.2.6.28-.22.07-.46.11-.65.22-.81.49-1.69.75-2.62.95-.39.09-.78.41-1.07.71-.34.36-.58.83-.85,1.22.15.21.27.38.38.55-.95-.55-2.81-.22-3.73.7.28.08.56.16.83.24-.44.06-.86.01-1.27.07-.66.1-1.3.3-1.96.42-1.4.27-1.71.96-.95,2.27.84-1.05,1.99-1.28,3.23-1.26,1.87.03,3.48-.81,5.12-1.53.44-.19.73-.58.7-1.09-.03-.48-.39-.67-.89-.76.79-.09,1.13.28,1.3,1.34.57.01.9-.32,1.15-.78.27-.48,0-.81-.35-1.12.03-.03.06-.06.1-.1.27.16.54.32.85.49.5-.34,1.05-.66,1.55-1.06.6-.47,1.14-1.02,1.3-1.81.22-1.1-.39-1.62-1.46-1.26-.05.02-.11,0-.17,0,.12-.19.28-.37.43-.36.44.03.87.14,1.37.24.16-.33.42-.78.13-1.21-.24-.36-.65-.62-.89-.84.16-.1.54-.19.63-.41.37-.86.76-1.74.95-2.64-.11-.83-.29-1.63-.54-2.4-.08-.26-.18-.51-.28-.76-.39-.98-.89-1.91-1.5-2.77-.16-.23-.32-.45-.49-.66-1.96-2.48-4.78-4.39-8.08-5.38-.11.03-.22.05-.31.02-1.46-.56-2.96-.62-4.48-.36-.99.17-2.26,1.1-2.77,2.02.62-.12,1.24-.2,1.83-.37.38-.11.71-.36,1.07-.54.26-.13.52-.26.77-.39.02.04.03.08.05.12-.28.19-.57.38-.85.58.02.07.04.14.07.21.91,0,1.82.05,2.72-.01,1.69-.11,3.26.22,4.71,1.1.57.35,1.09.78,1.82.56,0,0,.02.02.02.02-.5.15-1.01.29-1.53.44.08-.1.16-.2.29-.35-2.31-1.43-4.63-2.2-7.21-.8-.05-.05-.1-.1-.15-.15.25-.14.49-.28.74-.42-1.45-.32-3.81-.01-4.62.48.44.18.89.37,1.35.55-.11.09-.21.18-.25.22-.45-.8-2.35-.73-3.66.79.42-.02.84-.05,1.26-.07-1.92.4-2.95,1.18-4.04,3.18.96-.17,1.93-.47,2.63.48-.23-.06-.44-.2-.66-.29-.83-.32-1.63-.27-2.25.38-.93.97-1.21,2.24-1.41,3.56.18-.09.25-.26.37-.37.71-.63,1.52-1.05,2.5-.88.68.12,1.34.31,1.92.45-.13.08-.39.22-.67.39-1.05-.71-2.11-.67-3.18.06-1.08.74-1.51,1.82-1.62,3.07-.05.55,0,1.12,0,1.54.63-.24,1.24-.54,1.89-.71Z"/>
        <path class="cls-3" d="m70.31,11.65c.15-.84.56-1.53,1.31-2.1.59-.45,1.14-1,1.13-1.9-.02-1.25.71-2.02,1.81-2.47.29-.12.59-.2.89-.3-.01-.13-.02-.24-.03-.34-.05-.4,0-.78.13-1.1.01-.03.03-.07.05-.1-.05.03-.11.07-.16.1-.13.33-.18.7-.13,1.1.01.1.02.21.03.34-.3.1-.59.18-.88.3-1.08.45-1.79,1.23-1.77,2.47.01.9-.52,1.45-1.1,1.9-.73.57-1.13,1.26-1.28,2.1Z"/>
        <path class="cls-3" d="m70.71,13.75c-.17,1.23.01,2.43.52,3.56.49,1.1.84,1.27,2.02,1.05.02,0,.05.03.19.14-.42.17-.76.32-1.1.46.4.69,1.19,1.01,2.23.89-.29-1.06-.58-2.13-.88-3.19-.13-.46-.39-.84-.87-1-.47-.16-.83.07-1.2.37.12-.19.23-.38.34-.55-.12-.16-.23-.31-.34-.46.73.29,1.42.56,2.05.81.24-1.35.5-2.74.72-4.14.11-.74-.36-1.3-1.11-1.31-.46,0-.92.11-1.38.18-.03-.02-.06-.03-.09-.05.2-.13.4-.26.58-.37-.12-.2-.2-.33-.28-.46.3.11.55.29.8.29.71,0,1.32.15,1.75.85.36-.82.69-1.55,1-2.3.34-.81.38-1.6-.26-2.3.1-.06.17-.1.26-.15.16.48.32.96.46,1.38.67-.75,1.34-1.49,2-2.25.66-.76.65-1.15-.03-1.92.18.02.35.04.5.05.11.36.2.7.3,1.02.69-.42,1.36-.8,2.01-1.23.7-.46,1.48-.87,2.02-1.49.9-1.03,1.98-1.49,3.17-1.6-.07,0-.14,0-.22-.01C85.6,0,85.33,0,85.05,0c-2.42,0-4.71.47-6.77,1.32-.07.03-.15.06-.22.09-.29.12-.58.25-.86.4-.03.02-.06.03-.09.05-.3.15-.59.31-.87.47-.04.04-.08.08-.13.12-.02.02-.03.03-.05.05-.25.29-.4.72-.49,1.1-.11.48.15.81.46.8-.62.28-1.41.57-2.13.98-.63.36-.95.99-.97,1.72,0,.15.11.3.18.45-.24.3-.52.65-.87,1.09.27.04.38.05.5.07-.03.04-.03.06-.05.06-.05.03-.09.06-.14.07-1.21.4-1.81,1.29-2,2.49-.1.62.19,1.1.78,1.34.23.09.46.16.68.23v.32c-.83-.59-1.18-.46-1.31.52Z"/>
        <polygon class="cls-5" points="97.25 57.4 84.75 41.22 73 44.41 72.81 43.71 85.03 40.39 97.36 56.35 107.35 47.79 117.87 56.59 117.4 57.15 107.35 48.75 97.25 57.4"/>
        <rect class="cls-5" x="66.39" y="49.46" width="15.25" height=".73" transform="translate(-13.14 30.75) rotate(-21.6)"/>
        <path class="cls-5" d="m107.77,58.59c-.39,0-1.72-.95-11.52-8.67-5.46-4.3-10.96-8.69-11.02-8.73l-1.62-1.29,24.08,8.1.02.24c.69,10.02.42,10.17.19,10.3-.04.02-.08.04-.13.04Zm-20.45-16.68c7.7,6.12,17.9,14.17,20.12,15.72.03-1.49-.22-6.05-.43-9.1l-19.69-6.62Z"/>
        <rect class="cls-5" x="84.72" y="45.44" width=".73" height="11.6" transform="translate(-11.98 72.28) rotate(-43.29)"/>
        <polygon class="cls-5" points="88.41 55.51 85.02 42.08 81.16 48.09 72.89 44.89 67.23 53.1 66.63 52.68 72.62 44 80.87 47.19 85.32 40.27 89.12 55.34 88.41 55.51"/>
        <path d="m70.32,12.68s.02.03.03.04c.37.48.22.95.13,1.48-.29,1.61.1,3.09.88,4.52.68,1.26,1.64,2.01,3.08,2.19.43.05.89.29,1.22.57,1.09.91,2.35,1.32,3.72,1.48.19.02.36.11.52.29-.55.04-1.11.07-1.68.11.05.11.08.2.12.28.33-.07.65-.1.94-.09h0c1.1-.03,2,.37,2.86,1.29-.11-.03-.22-.06-.33-.08.03.02.05.05.07.08-.26-.08-.52-.11-.76-.12l.53.87c.18,0,.36,0,.54,0,.63.03,1.17.24,1.57.59,0,0,.58.51.76,1.48.08.43.2.97.32,1.61,0,0,0,0,0,0,.59,3.27,1.04,8.88-4.78,12.98,4.82-1.48,7.97-.52,11.02.27,0,0-4.45-10.27-4.21-13.3,0-.01,0-.02,0-.03,0-.1.02-.19.04-.27.22-.94.81-1.42.81-1.42.41-.34.94-.51,1.6-.53,2.47-.08,4.59-1.15,6.69-2.28.27-.15.57-.34.73-.59.47-.72,1.22-1.1,1.86-1.61.21-.17.41-.34.61-.51.86-1.36,1.48-2.85,1.81-4.43.01-.41-.1-.76-.42-.98.23-.77.48-1.51.68-2.24-.02-.36-.05-.71-.09-1.06-.19.91-.58,1.78-.95,2.64-.09.22-.47.31-.63.41.24.22.65.48.89.84.29.42.03.87-.13,1.21-.5-.09-.93-.2-1.37-.24-.15-.01-.31.17-.43.36.06,0,.11,0,.17,0,1.07-.36,1.68.15,1.46,1.26-.15.79-.7,1.34-1.3,1.81-.5.39-1.04.72-1.55,1.06-.31-.18-.58-.33-.85-.49-.03.03-.06.07-.1.1.35.31.61.64.35,1.12-.25.46-.59.79-1.15.78-.18-1.06-.51-1.43-1.3-1.34.5.09.87.28.89.76.03.51-.26.9-.7,1.09-1.64.72-3.25,1.56-5.12,1.53-1.23-.02-2.39.22-3.23,1.26-.76-1.31-.44-2,.95-2.27.66-.13,1.3-.32,1.96-.42.41-.06.83-.01,1.27-.07-.27-.08-.55-.16-.83-.24.92-.93,2.78-1.26,3.73-.7-.12-.17-.24-.35-.38-.55.27-.39.51-.86.85-1.22.29-.31.68-.63,1.07-.71.92-.21,1.8-.47,2.62-.95.19-.11.43-.15.65-.22-.16-.08-.34-.15-.6-.28-.52.58-1.39.77-2.24.93-.97.18-1.71.63-2.16,1.52-.26.52-.67.74-1.25.84-.6.1-1.2.3-1.75.56-.41.2-.96.19-1.2.72-.05.11-.31.15-.47.17-.45.08-.91.13-1.36.2-.73.11-1.36.38-1.69,1.23-.33-.41-.63-.74-.89-1.1-.06-.09-.06-.28-.01-.39.34-.84,1.63-1.24,2.35-.79.13-.18.26-.34.41-.53h-1.16c-.02-.05-.04-.1-.05-.15.31-.17.6-.4.93-.51.73-.24,1.47-.35,2.24-.13.14.04.34-.15.52-.2,1.65-.39,3.09-1.14,4.35-2.29.36-.33.86-.49,1.26-.76.53-.37,1.07-.75,1.55-1.19.52-.48,1-1,1.77-1.06h-.78c.26-1.31.85-2.42,2.03-3.19-.04-.03-.08-.06-.12-.09-.35.23-.69.46-1.1.74v-1.05c-.34,2.51-1.52,4.45-3.8,5.67.06-.56.22-1.1.15-1.6-.08-.55-.26-1.15-.58-1.6-.91-1.28-.92-2.44.11-3.65.2-.23.45-.42.71-.66-.2.02-.37.04-.52.05-.15-.26-.28-.5-.37-.65-.04.33,0,.72-.14,1.05-.15.36-.43.67-.59.9-.47-.27-.9-.54-1.35-.77-.8-.4-1.38-1.43-1.45-2.45v1.37c-1.05,0-1.26-.24-1.37-1.43-.03.35-.05.69-.09,1.19-.42-.4-.78-.75-1.13-1.1-.15.74.63.86,1.01,1.36-.44.26-.84.54-1.27.75-.39.19-.72.04-.95-.33-.34-.53-.68-1.07-1.02-1.62-.1.09-.18.16-.22.2.27.4.58.76.79,1.18.3.61.67,1.04,1.43.86q-.36,1.77-.1,2.31c0-1.34.2-2.56,1.57-3.14.7-.29,1.64.09,2.15.75-.18.15-.35.3-.6.52.44-.03.78-.08,1.11-.06.61.05,1,.41,1.15,1,.03.1.03.21.04.31,0,.42,0,.84,0,1.28-.18.02-.36.05-.49.06.44.27.92.57,1.39.86-.01.06-.02.12-.03.18-1.29-.12-1.79.8-2.29,1.72.17-.12.35-.24.58-.41v.86s.09,0,.14,0c.03-.28.08-.57.08-.85.01-.5.44-.97.97-1.05.41-.06.84.23.95.74.06.29.05.64-.05.93-.28.88-.81,1.61-1.61,2.09-1.3.76-2.74,1.06-4.27,1.41.3-.41.57-.73.77-1.09.41-.7.52-1.45.23-2.24-.6-1.63-.29-2.52,1.25-3.49-.28.03-.45.05-.64.07-.05-.29-.09-.58-.14-.87-.06,0-.12-.01-.17-.02.24.7-.14,1.17-.47,1.7-.28.46-.36,1.04-.51,1.53-.67-.31-1.38-.63-2.09-.96-.02.04-.05.07-.07.11.13.08.25.17.38.25.54.35,1.15.63,1.6,1.08.92.91.89,2.13.02,3.08-.37.4-.75.83-1.41.95.13-.68.17-1.29-.61-1.62.1.23.21.41.27.6.23.7.07,1.01-.6,1.26-1.25.48-1.7.79-3.03,2.17-.62-.82-1.03-1.72-1.13-2.74-.1-1.01.52-1.65,1.54-1.64.28,0,.55.07.83.11.01-.05.02-.09.03-.14-.45-.1-.9-.2-1.44-.32.46-.34.93-.67,1.39-1.02.55-.41,1.14-.2,1.76-.05-.49-.54-.78-.6-1.88-.44.06-.59.17-1.19-.33-1.7.55,1.22-.06,2.04-.92,2.77-.32.28-.63.56-.97.87-.19-.17-.34-.37-.55-.48-.19-.1-.44-.09-.67-.09.87.49.89.52.7,1.56-.18.98.1,1.88.47,2.79-1.17-.75-2.33-1.51-2.88-2.85-.12-.28-.03-.77.15-1.03.42-.61,1-1.08,1.74-1.32.59-.19,1.14-.46,1.3-1.13-.45.31-.91.62-1.34.92.29-.88.56-1.7.83-2.52.07-.2.15-.4.24-.58.59-1.15,1.32-1.31,2.16-.63.45-.04.75-.06,1.18-.1-.91-.23-1.69-.42-2.49-.62.08-.9.64-1.32,1.61-1.15.12.02.25-.05.49-.11-.16-.1-.19-.14-.21-.13-.73.11-1.21-.18-1.45-.89-.1-.28-.31-.53-.38-.81-.09-.36-.09-.75-.13-1.12-.24.17-.26.52-.13.85.19.49.44.96.67,1.43.17.34.15.6-.13.73-.4-.52-.76-1.03-1.17-1.5-.35-.4-.44-.82-.28-1.32.48-1.5,2.36-2.31,3.8-1.63.41.2.8.44,1.23.62.73.3,1.4.13,1.95-.41.5-.49.65-1.1.37-1.92-.04.32-.06.51-.08.69-.14,1.06-1.28,1.67-2.22,1.16-.78-.42-1.54-.88-2.58-.8.34-.48.62-.89.85-1.23-.16-.33-.31-.63-.45-.94.26.73,0,1.36-.53,1.79-.5.41-1.12.68-1.76,1.05-.03-.27-.05-.41-.07-.55-.03.01-.06.02-.07.03-.23.47-.42.96-.68,1.42-.65,1.14-.6,1.7.3,2.64.72.77.82,1.13.45,1.79-.17-.31-.35-.62-.52-.93-.07.02-.14.04-.2.05.58.87.5,1.66-.2,2.47-.7-1.67-2.31-1.08-3.61-1.52.16.13.27.22.41.34-.25.16-.48.3-.58.36.62-.01,1.37-.11,2.09-.03,1.19.14,1.75,1.28,1.26,2.37-.32.69-.75,1.32-1.42,1.66-1.24.61-1.66,2.27-1.02,3.53.03.06.04.13.07.24-.92-.13-1.77-.35-2.43-.99-.67-.65-.65-1.31,0-1.97.16-.16.2-.44.22-.69-.4.49-.8.97-1.19,1.45-.55-.67-.81-2.08-.45-2.64.52-.83,1.57-1.06,3.07-.65-.1-.12-.17-.21-.3-.37.19-.11.39-.22.61-.35-.66.04-1.19,0-1.69.12-.65.16-1.26.46-1.89.71,0-.42-.04-.98,0-1.54.11-1.24.54-2.32,1.62-3.07,1.07-.73,2.13-.76,3.18-.06.29-.16.54-.31.67-.39-.58-.14-1.24-.33-1.92-.45-.98-.17-1.79.25-2.5.88-.13.11-.2.28-.37.37.19-1.32.48-2.59,1.41-3.56.62-.66,1.43-.71,2.25-.38.23.09.43.23.66.29-.7-.95-1.68-.65-2.63-.48,1.09-1.99,2.11-2.78,4.04-3.18-.42.02-.84.05-1.26.07,1.32-1.51,3.21-1.59,3.66-.79.04-.04.14-.12.25-.22-.46-.19-.91-.37-1.35-.55.8-.49,3.17-.8,4.62-.48-.25.14-.49.28-.74.42.05.05.1.1.15.15,2.58-1.4,4.9-.63,7.21.8-.13.15-.2.25-.29.35.52-.15,1.02-.3,1.53-.44,0,0-.01-.02-.02-.02-.73.21-1.25-.22-1.82-.56-1.44-.88-3.02-1.21-4.71-1.1-.91.06-1.82.01-2.72.01-.02-.07-.04-.14-.07-.21.28-.19.57-.38.85-.58-.02-.04-.03-.08-.05-.12-.26.13-.52.25-.77.39-.36.18-.69.43-1.07.54-.59.17-1.2.25-1.83.37.51-.91,1.78-1.85,2.77-2.02,1.52-.26,3.02-.2,4.48.36.09.03.2.01.31-.02-.06-.02-.13-.04-.19-.06-1.25-.36-2.57-.59-3.93-.66-1.19.11-2.28.57-3.17,1.6-.54.62-1.32,1.02-2.02,1.49-.64.43-1.31.81-2.01,1.23-.09-.32-.19-.66-.3-1.02-.16-.02-.32-.03-.5-.05.68.77.69,1.17.03,1.92-.66.75-1.33,1.49-2,2.25-.14-.43-.3-.9-.46-1.38-.08.05-.16.09-.26.15.64.7.6,1.49.26,2.3-.31.74-.64,1.48-1,2.3-.43-.7-1.04-.85-1.75-.85-.25,0-.51-.18-.8-.29.08.13.16.27.28.46-.18.11-.38.24-.58.37.03.02.06.03.09.05.46-.07.92-.19,1.38-.18.75.01,1.22.57,1.11,1.31-.22,1.4-.48,2.79-.72,4.14-.63-.25-1.32-.52-2.05-.81.11.15.22.3.34.46-.1.17-.22.36-.34.55.37-.3.73-.52,1.2-.37.47.16.74.53.87,1,.3,1.06.59,2.13.88,3.19-1.04.13-1.83-.19-2.23-.89.34-.14.69-.28,1.1-.46-.14-.11-.17-.14-.19-.14-1.18.22-1.53.05-2.02-1.05-.51-1.14-.69-2.33-.52-3.56.13-.98.48-1.11,1.31-.52v-.32c-.22-.07-.45-.14-.68-.23-.59-.24-.88-.72-.78-1.34.2-1.2.79-2.1,2-2.49.05-.02.09-.05.14-.07.01,0,.02-.03.05-.06-.12-.02-.23-.03-.5-.07.35-.43.63-.79.87-1.09-.07-.16-.18-.31-.18-.45.02-.74.35-1.36.97-1.72.72-.41,1.51-.7,2.13-.98-.32,0-.57-.32-.46-.8.09-.38.24-.81.49-1.1.01-.02.03-.04.05-.05.04-.04.08-.08.13-.12-.1.06-.2.12-.3.18-.15.09-.29.18-.43.27-.02.03-.03.07-.05.1-.13.33-.18.7-.13,1.1.01.1.02.21.03.34-.3.1-.61.18-.89.3-1.1.45-1.83,1.23-1.81,2.47.01.9-.53,1.45-1.13,1.9-.75.57-1.15,1.26-1.31,2.1-.01.06-.02.11-.03.17-.02.13-.03.26-.04.4,0,.15,0,.34.08.46Z"/>
        <path d="m99.22,22c.38-.33.74-.69,1.06-1.08.27-.33.37-.83.47-1.27.12-.53.13-1.08.23-1.61.03-.17.05-.33.06-.48-.33,1.58-.95,3.08-1.81,4.43Z"/>
        <path d="m92.58,8.73c.23.07.45.14.69.22-.18.24-.34.46-.5.68.02.01.03.03.05.04.34-.24.67-.52,1.03-.72.62-.36,1.33-.44,1.91-.02.65.47,1.39.74,2.16,1.17-1.44.97-1.14,2.83-2.13,3.94.1.24.19.47.26.62.25-.75.48-1.6.8-2.41.23-.56.55-1.1.9-1.6.43-.61,1.04-.73,1.74-.47.48.18.87.42,1.17.71.55.56.75,1.33.56,2.33,0,.03-.01.05-.02.08.05.35.08.7.09,1.06.08-.3.16-.6.23-.9.22-.96,0-1.88-.61-2.7-.16-.22-.2-.55-.23-.84-.15-1.31-1.08-2.53-2.3-3.23-.77-.45-1.66-.7-2.54-.62,1.18.27,2.23.66,3.03,1.29.81.63,1.37,1.52,1.57,2.78-.02,0-.04,0-.06-.01-.69-.11-1.35-.14-1.95-.36-.33-.12-.56-.57-.78-.9-.09-.12-.05-.34-.07-.51-.05,0-.09,0-.14,0,.02.38.04.76.07,1.3-.45-.39-.85-.7-1.2-1.06-.31-.33-.55-.74-.83-1.1-.16-.21-.31-.45-.53-.59-.82-.5-1.66-.96-2.4-1.38.16.16.39.39.66.66-.22.14-.34.21-.51.32,1.57-.1,2.42.82,3.08,1.88-1.07.11-2.13.21-3.21.32Z"/>
        <path d="m81.13,24.74c.25,0,.5.04.76.12-.02-.03-.05-.05-.07-.08-.24-.04-.47-.05-.69-.05Z"/>
        <path d="m78.35,23.66s0,.02.01.03c.33-.07.63-.11.93-.12-.3,0-.61.02-.94.09Z"/>
        <g>
          <circle class="cls-3" cx="107.35" cy="48.27" r="2.24"/>
          <path class="cls-1" d="m104.84,48.27c0-1.39,1.13-2.51,2.51-2.51s2.51,1.13,2.51,2.51c0,1.39-1.13,2.51-2.51,2.51s-2.51-1.13-2.51-2.51Zm.55,0c0,1.09.88,1.97,1.97,1.97s1.97-.88,1.97-1.97-.88-1.97-1.97-1.97-1.97.88-1.97,1.97Z"/>
        </g>
        <g>
          <circle class="cls-3" cx="97.31" cy="56.87" r="1.97"/>
          <path class="cls-1" d="m95.06,56.87c0-1.24,1.01-2.24,2.24-2.24s2.24,1,2.24,2.24c0,1.24-1.01,2.24-2.24,2.24s-2.24-1.01-2.24-2.24Zm.55,0c0,.94.76,1.7,1.7,1.7s1.7-.76,1.7-1.7-.76-1.69-1.7-1.69-1.7.76-1.7,1.69Z"/>
        </g>
        <g>
          <circle class="cls-3" cx="72.91" cy="44.06" r="1.5"/>
          <path class="cls-1" d="m71.13,44.06c0-.98.79-1.77,1.77-1.77s1.77.79,1.77,1.77-.79,1.77-1.77,1.77-1.77-.79-1.77-1.77Zm.55,0c0,.68.55,1.23,1.23,1.23s1.23-.55,1.23-1.23c0-.68-.55-1.23-1.23-1.23s-1.23.55-1.23,1.23Z"/>
        </g>
        <g>
          <circle class="cls-3" cx="85.92" cy="40.91" r="1.5"/>
          <path class="cls-1" d="m84.15,40.91c0-.98.79-1.77,1.77-1.77s1.77.79,1.77,1.77c0,.98-.79,1.77-1.77,1.77s-1.77-.79-1.77-1.77Zm.55,0c0,.68.55,1.23,1.23,1.23s1.23-.55,1.23-1.23c0-.68-.55-1.23-1.23-1.23s-1.23.55-1.23,1.23Z"/>
        </g>
        <g>
          <circle class="cls-3" cx="89.06" cy="55.46" r="1.3"/>
          <path class="cls-1" d="m87.5,55.46c0-.86.7-1.57,1.57-1.57s1.57.7,1.57,1.57-.7,1.57-1.57,1.57-1.57-.7-1.57-1.57Zm.55,0c0,.56.46,1.02,1.02,1.02s1.02-.46,1.02-1.02c0-.56-.46-1.02-1.02-1.02s-1.02.46-1.02,1.02Z"/>
        </g>
        <circle class="cls-2" cx="117.64" cy="56.87" r="1.33"/>
        <g>
          <circle class="cls-3" cx="107.72" cy="58.23" r=".98"/>
          <path class="cls-1" d="m106.6,58.23c0-.62.5-1.12,1.12-1.12s1.12.5,1.12,1.12-.5,1.12-1.12,1.12-1.12-.5-1.12-1.12Zm.27,0c0,.47.38.85.85.85s.85-.38.85-.85-.38-.85-.85-.85-.85.38-.85.85Z"/>
        </g>
        <g>
          <circle class="cls-3" cx="81.11" cy="47.01" r="1.5"/>
          <path class="cls-1" d="m79.34,47.01c0-.98.79-1.77,1.77-1.77s1.77.79,1.77,1.77c0,.98-.79,1.77-1.77,1.77s-1.77-.79-1.77-1.77Zm.55,0c0,.68.55,1.23,1.23,1.23s1.23-.55,1.23-1.23c0-.68-.55-1.23-1.23-1.23s-1.23.55-1.23,1.23Z"/>
        </g>
        <path class="cls-4" d="m102.06,31.44c-.04.22-.07.43-.11.65.04-.22.07-.43.11-.65Z"/>
        <path class="cls-4" d="m101.9,31.56c.07.08.15.16.21.25.02.03-.04.1-.07.15-.05-.13-.09-.27-.14-.4Z"/>
      </g>
    </g>
  </g>
</svg>